# This file uses centimeters as units for non-parametric coordinates.

g default
v -103.666771 8.418739 5.332382
v -103.142365 1.045441 8.183016
v -102.942772 -2.999252 5.984783
v -102.860100 -5.257187 -0.000000
v -102.942772 -2.999252 -5.984783
v -103.142365 1.045441 -8.183017
v -103.666771 8.418739 -5.332383
v -103.438225 10.975365 -0.000000
v 103.575409 8.455688 5.332382
v 103.145721 1.095680 8.183016
v 102.716034 -2.935715 5.984783
v 102.538048 -5.188133 0.000000
v 102.716034 -2.935715 -5.984783
v 103.145721 1.095680 -8.183017
v 103.575409 8.455688 -5.332383
v 103.753395 10.192360 0.000000
v -104.220284 2.412399 -0.000000
v 104.061623 2.429741 0.000000
v -99.694878 10.228752 -0.000000
v -103.387161 5.007729 -7.802366
v 103.346298 5.051765 -7.802366
v -103.393570 5.061111 7.774112
v 103.351555 5.104988 7.774112
vt 0.947189 0.067822
vt 0.836704 0.022057
vt 0.726218 0.067822
vt 0.680454 0.178307
vt 0.726218 0.288792
vt 0.836704 0.334557
vt 0.947189 0.288792
vt 0.992954 0.178307
vt 0.423380 0.046473
vt 0.499731 0.046473
vt 0.576082 0.046473
vt 0.652433 0.046473
vt 0.117975 0.046473
vt 0.194326 0.046473
vt 0.270678 0.046473
vt 0.347029 0.046473
vt 0.652433 0.964982
vt 0.423380 0.964982
vt 0.499731 0.964982
vt 0.576082 0.964982
vt 0.041624 0.964982
vt 0.117975 0.964982
vt 0.194326 0.964982
vt 0.270678 0.964982
vt 0.347029 0.964982
vt 0.041624 0.046473
vt 0.948724 0.707695
vt 0.838239 0.661930
vt 0.727753 0.707695
vt 0.681989 0.818180
vt 0.727753 0.928666
vt 0.838239 0.974430
vt 0.948724 0.928666
vt 0.994489 0.818180
vt 0.836704 0.172057
vt 0.838239 0.811930
vt 0.347029 0.062586
vt 0.229967 0.046473
vt 0.888278 0.313194
vt 0.889813 0.683293
vt 0.229967 0.964982
vt 0.463156 0.046473
vt 0.889630 0.043980
vt 0.891165 0.952507
vt 0.463156 0.964982
vn 0.000231 -0.754228 0.656612
vn 0.000323 -1.000000 0.000000
vn 0.000323 -1.000000 0.000000
vn 0.000231 -0.754228 0.656612
vn 0.000231 -0.754228 -0.656612
vn 0.000231 -0.754228 -0.656612
vn 0.982623 -0.173830 0.065085
vn 0.980581 -0.196114 0.000000
vn 0.997531 -0.070224 -0.000049
vn 0.982623 -0.173830 -0.065085
vn 0.990805 -0.096104 -0.095231
vn 0.999213 0.039675 0.000000
vn 0.997445 0.019727 0.068656
vn -0.984635 -0.174622 -0.000000
vn -0.986445 -0.142084 0.082089
vn -0.998769 -0.049599 -0.000059
vn -0.986445 -0.142082 -0.082089
vn -0.989928 -0.079537 -0.117113
vn -0.997571 0.043980 0.054012
vn -0.995855 0.090952 0.000000
vn 0.061136 0.839811 0.539425
vn 0.095785 0.995402 -0.000001
vn 0.195598 0.980684 -0.000001
vn 0.000058 -0.199979 -0.979800
vn 0.000058 -0.199979 -0.979800
vn 0.994994 -0.020275 0.097857
vn 0.990804 -0.096118 0.095228
vn -0.000071 0.357327 0.933980
vn -0.000071 0.357327 0.933980
vn -0.000061 0.807261 0.590195
vn 0.000057 -0.197182 0.980367
vn 0.000057 -0.197182 0.980367
vn -0.000071 0.353712 -0.935354
vn -0.000071 0.353712 -0.935354
vn -0.000061 0.806663 -0.591012
vn 0.061151 0.839456 -0.539976
vn -0.000001 1.000000 -0.000000
vn -0.993062 -0.026393 0.114596
vn -0.989927 -0.079569 0.117108
vn -0.993022 -0.026620 -0.114887
vn -0.997567 0.043724 -0.054300
vn 0.994966 -0.020475 -0.098099
vn 0.997433 0.019514 -0.068897
s 1
g log_mesh
f 3/11/1 4/12/2 12/17/3 11/20/4
f 4/26/2 5/13/5 13/22/6 12/21/3
s 2
f 11/31/7 12/30/8 18/36/9
f 12/30/8 13/29/10 18/36/9
f 13/29/10 14/28/11 18/36/9
f 16/34/12 9/33/13 18/36/9
s 4
f 4/4/14 3/3/15 17/35/16
f 5/5/17 4/4/14 17/35/16
f 6/6/18 5/5/17 17/35/16
f 1/1/19 8/8/20 17/35/16
s 1
f 1/9/21 19/37/22 8/16/23
f 13/22/6 5/13/5 6/14/24 14/23/25
s 2
f 18/36/9 23/44/26 10/32/27
f 10/32/27 11/31/7 18/36/9
s 1
f 22/42/28 23/45/29 9/18/30 1/9/21
f 11/20/4 10/19/31 2/10/32 3/11/1
f 20/38/33 21/41/34 14/23/25 6/14/24
f 15/24/35 7/15/36 19/37/22 16/25/37
f 19/37/22 1/9/21 9/18/30 16/25/37
s 4
f 17/35/16 22/43/38 1/1/19
f 3/3/15 2/2/39 17/35/16
f 20/39/40 17/35/16 7/7/41
f 8/8/20 7/7/41 17/35/16
s 2
f 21/40/42 18/36/9 14/28/11
f 15/27/43 16/34/12 18/36/9
s 1
f 19/37/22 7/15/36 8/16/23
f 7/15/36 15/24/35 21/41/34 20/38/33
f 2/10/32 10/19/31 23/45/29 22/42/28
s 2
f 18/36/9 21/40/42 15/27/43
f 23/44/26 18/36/9 9/33/13
s 4
f 17/35/16 20/39/40 6/6/18
f 22/43/38 17/35/16 2/2/39
